{"title":"Major Lazer ft.Ellie Goulding+Tarrus Riley - Powerful (2015)","uid":12181296,"size":75827114,"categoryP":"video","categoryS":"music_videos","magnet":"?xt=urn:btih:0313cc7cbc366a84717e12a5e6b689a79b51680d&amp;dn=Major+Lazer+ft.Ellie+Goulding%2BTarrus+Riley+-+Powerful+%282015%29&amp;tr=udp%3A%2F%2Ftracker.openbittorrent.com%3A80&amp;tr=udp%3A%2F%2Fopen.demonii.com%3A1337&amp;tr=udp%3A%2F%2Ftracker.coppersurfer.tk%3A6969&amp;tr=udp%3A%2F%2Fexodus.desync.com%3A6969","seeders":29,"leechers":1,"uploader":"MeRaDil","files":1,"time":1438451217,"description":"MAJOR LAZER ft.ELLIE GOULDING &amp; TARRUS RILEY - POWERFUL\n\n &lt;a href=&quot;\nhttp://gifyu.com/images/powerful.png&quot; rel=&quot;nofollow&quot; target=&quot;_NEW&quot;&gt;\nhttp://gifyu.com/images/powerful.png&lt;/a&gt;\n &lt;a href=&quot;\nhttp://gifyu.com/images/powerful1.png&quot; rel=&quot;nofollow&quot; target=&quot;_NEW&quot;&gt;\nhttp://gifyu.com/images/powerful1.png&lt;/a&gt;\n\n\nGeneral\nMajor Lazer ft. Ellie Goulding &amp; Tarrus Riley - Powerful\nFormat                                   : MPEG-4\nFormat profile                           : Base Media\nCodec ID                                 : isom\nFile size                                : 72.3 MiB\nDuration                                 : 3mn 28s\nOverall bit rate                         : 2 915 Kbps\nMusicVideo name                          : Powerful\nAlbum                                    : Peace Is The Mission\nPerformer                                : Major Lazer ft. Ellie Goulding &amp; Tarrus Riley\nGenre                                    : Electronic\nContentType                              : Music Video\nRecorded date                            : 2015\nCover                                    : Yes\nRating                                   : ***\nMake                                     : MeRaDil\nRelease                                  : USA - july 23 - 2015\n\nVideo\nID                                       : 1\nFormat                                   : AVC\nFormat/Info                              : Advanced Video Codec\nFormat profile                           : &lt;a class=&quot;__cf_email__&quot; href=&quot;/cdn-cgi/l/email-protection&quot; data-cfemail=&quot;d890b1bfb09894ecf6e8&quot;&gt;[email&amp;#160;protected]&lt;/a&gt;&lt;script data-cfhash='f9e31' type=&quot;text/javascript&quot;&gt;\n/* &lt;![CDATA[ */!function(){try{var t=&quot;currentScript&quot;in document?document.currentScript:function(){for(var t=document.getElementsByTagName(&quot;script&quot;),e=t.length;e--;)if(t[e].getAttribute(&quot;data-cfhash&quot;))return t[e]}();if(t&amp;&amp;t.previousSibling){var e,r,n,i,c=t.previousSibling,a=c.getAttribute(&quot;data-cfemail&quot;);if(a){for(e=&quot;&quot;,r=parseInt(a.substr(0,2),16),n=2;a.length-n;n+=2)i=parseInt(a.substr(n,2),16)^r,e+=String.fromCharCode(i);e=document.createTextNode(e),c.parentNode.replaceChild(e,c)}t.parentNode.removeChild(t);}}catch(u){}}()/* ]]&gt; */&lt;/script&gt;\nFormat settings, CABAC                   : Yes\nFormat settings, ReFrames                : 2 frames\nCodec ID                                 : avc1\nCodec ID/Info                            : Advanced Video Coding\nDuration                                 : 3mn 28s\nBit rate                                 : 2 653 Kbps\nWidth                                    : 1 920 pixels\nHeight                                   : 1 080 pixels\nDisplay aspect ratio                     : 16:9\nFrame rate mode                          : Constant\nFrame rate                               : 25.000 fps\nColor space                              : YUV\nChroma subsampling                       : 4:2:0\nBit depth                                : 8 bits\nScan type                                : Progressive\nBits/(Pixel*Frame)                       : 0.051\nStream size                              : 65.8 MiB (91%)\n\nAudio\nID                                       : 2\nFormat                                   : AAC\nFormat/Info                              : Advanced Audio Codec\nFormat profile                           : LC\nCodec ID                                 : 40\nDuration                                 : 3mn 28s\nBit rate mode                            : Constant\nBit rate                                 : 256 Kbps\nChannel(s)                               : 2 channels\nChannel positions                        : Front: L R\nSampling rate                            : 44.1 KHz\nCompression mode                         : Lossy\nStream size                              : 6.35 MiB (9%)\n &lt;a href=&quot;\nhttps://thepiratebay.se/user/MeRaDil&quot; rel=&quot;nofollow&quot; target=&quot;_NEW&quot;&gt;\nhttps://thepiratebay.se/user/MeRaDil&lt;/a&gt;\n\nMajor Lazer * Ellie Goulding * Tarrus Riley * Electronic * Promo","torrent":{"xt":"urn:btih:0313cc7cbc366a84717e12a5e6b689a79b51680d","amp;dn":"Major+Lazer+ft.Ellie+Goulding%2BTarrus+Riley+-+Powerful+%282015%29","amp;tr":["udp%3A%2F%2Ftracker.openbittorrent.com%3A80","udp%3A%2F%2Fopen.demonii.com%3A1337","udp%3A%2F%2Ftracker.coppersurfer.tk%3A6969","udp%3A%2F%2Fexodus.desync.com%3A6969"],"infoHash":"0313cc7cbc366a84717e12a5e6b689a79b51680d","infoHashBuffer":{"type":"Buffer","data":[3,19,204,124,188,54,106,132,113,126,18,165,230,182,137,167,155,81,104,13]},"announce":[],"urlList":[]}}